General
Complete name                            : Letter Never Sent [1960] BRRip XviD- CODY.avi
Format                                   : AVI
Format/Info                              : Audio Video Interleave
File size                                : 896 MiB
Duration                                 : 1h 36mn
Overall bit rate                         : 1 300 Kbps
Writing application                      : VirtualDubMod 1.5.10.3 | www.virtualdub-fr.org || (build 2550/release)
Writing library                          : VirtualDubMod build 2550/release

Video
ID                                       : 0
Format                                   : MPEG-4 Visual
Format profile                           : Advanced Simple@L5
Format settings, BVOP                    : 4
Format settings, QPel                    : No
Format settings, GMC                     : No warppoints
Format settings, Matrix                  : Default (H.263)
Codec ID                                 : XVID
Codec ID/Hint                            : XviD
Duration                                 : 1h 36mn
Bit rate                                 : 1 163 Kbps
Width                                    : 720 pixels
Height                                   : 536 pixels
Display aspect ratio                     : 4:3
Frame rate                               : 23.976 fps
Color space                              : YUV
Chroma subsampling                       : 4:2:0
Bit depth                                : 8 bits
Scan type                                : Progressive
Compression mode                         : Lossy
Bits/(Pixel*Frame)                       : 0.126
Stream size                              : 801 MiB (89%)
Writing library                          : XviD 1.2.1 (UTC 2008-12-04)

Audio
ID                                       : 1
Format                                   : MPEG Audio
Format version                           : Version 1
Format profile                           : Layer 3
Codec ID                                 : 55
Codec ID/Hint                            : MP3
Duration                                 : 1h 36mn
Bit rate mode                            : Constant
Bit rate                                 : 128 Kbps
Channel(s)                               : 1 channel
Sampling rate                            : 48.0 KHz
Compression mode                         : Lossy
Stream size                              : 88.2 MiB (10%)
Alignment                                : Aligned on interleaves
Interleave, duration                     : 42 ms (1.00 video frame)
Interleave, preload duration             : 504 ms
Writing library                          : L3.99r
Encoding settings                        : -m m -V 4 -q 2 -lowpass 20.5 -b 128


Audio language                           : Russian


IMDB link:                                 http://www.imdb.com/title/tt0053106/



Subtitles included                       : English



Please seed at least 1,5:1 . This way this torrent has a chance to survive !



Thanks . Enjoy !!				
